# uefn-cli meshgen
mtllib Main.mtl
o Main
v 50.0000 -0.0000 -50.0000
v 49.0393 -9.7545 -50.0000
v 49.0393 -9.7545 50.0000
v 50.0000 -0.0000 50.0000
v 49.0393 -9.7545 -50.0000
v 46.1940 -19.1342 -50.0000
v 46.1940 -19.1342 50.0000
v 49.0393 -9.7545 50.0000
v 46.1940 -19.1342 -50.0000
v 41.5735 -27.7785 -50.0000
v 41.5735 -27.7785 50.0000
v 46.1940 -19.1342 50.0000
v 41.5735 -27.7785 -50.0000
v 35.3553 -35.3553 -50.0000
v 35.3553 -35.3553 50.0000
v 41.5735 -27.7785 50.0000
v 35.3553 -35.3553 -50.0000
v 27.7785 -41.5735 -50.0000
v 27.7785 -41.5735 50.0000
v 35.3553 -35.3553 50.0000
v 27.7785 -41.5735 -50.0000
v 19.1342 -46.1940 -50.0000
v 19.1342 -46.1940 50.0000
v 27.7785 -41.5735 50.0000
v 19.1342 -46.1940 -50.0000
v 9.7545 -49.0393 -50.0000
v 9.7545 -49.0393 50.0000
v 19.1342 -46.1940 50.0000
v 9.7545 -49.0393 -50.0000
v 0.0000 -50.0000 -50.0000
v 0.0000 -50.0000 50.0000
v 9.7545 -49.0393 50.0000
v 0.0000 -50.0000 -50.0000
v -9.7545 -49.0393 -50.0000
v -9.7545 -49.0393 50.0000
v 0.0000 -50.0000 50.0000
v -9.7545 -49.0393 -50.0000
v -19.1342 -46.1940 -50.0000
v -19.1342 -46.1940 50.0000
v -9.7545 -49.0393 50.0000
v -19.1342 -46.1940 -50.0000
v -27.7785 -41.5735 -50.0000
v -27.7785 -41.5735 50.0000
v -19.1342 -46.1940 50.0000
v -27.7785 -41.5735 -50.0000
v -35.3553 -35.3553 -50.0000
v -35.3553 -35.3553 50.0000
v -27.7785 -41.5735 50.0000
v -35.3553 -35.3553 -50.0000
v -41.5735 -27.7785 -50.0000
v -41.5735 -27.7785 50.0000
v -35.3553 -35.3553 50.0000
v -41.5735 -27.7785 -50.0000
v -46.1940 -19.1342 -50.0000
v -46.1940 -19.1342 50.0000
v -41.5735 -27.7785 50.0000
v -46.1940 -19.1342 -50.0000
v -49.0393 -9.7545 -50.0000
v -49.0393 -9.7545 50.0000
v -46.1940 -19.1342 50.0000
v -49.0393 -9.7545 -50.0000
v -50.0000 -0.0000 -50.0000
v -50.0000 -0.0000 50.0000
v -49.0393 -9.7545 50.0000
v -50.0000 -0.0000 -50.0000
v -49.0393 9.7545 -50.0000
v -49.0393 9.7545 50.0000
v -50.0000 -0.0000 50.0000
v -49.0393 9.7545 -50.0000
v -46.1940 19.1342 -50.0000
v -46.1940 19.1342 50.0000
v -49.0393 9.7545 50.0000
v -46.1940 19.1342 -50.0000
v -41.5735 27.7785 -50.0000
v -41.5735 27.7785 50.0000
v -46.1940 19.1342 50.0000
v -41.5735 27.7785 -50.0000
v -35.3553 35.3553 -50.0000
v -35.3553 35.3553 50.0000
v -41.5735 27.7785 50.0000
v -35.3553 35.3553 -50.0000
v -27.7785 41.5735 -50.0000
v -27.7785 41.5735 50.0000
v -35.3553 35.3553 50.0000
v -27.7785 41.5735 -50.0000
v -19.1342 46.1940 -50.0000
v -19.1342 46.1940 50.0000
v -27.7785 41.5735 50.0000
v -19.1342 46.1940 -50.0000
v -9.7545 49.0393 -50.0000
v -9.7545 49.0393 50.0000
v -19.1342 46.1940 50.0000
v -9.7545 49.0393 -50.0000
v -0.0000 50.0000 -50.0000
v -0.0000 50.0000 50.0000
v -9.7545 49.0393 50.0000
v -0.0000 50.0000 -50.0000
v 9.7545 49.0393 -50.0000
v 9.7545 49.0393 50.0000
v -0.0000 50.0000 50.0000
v 9.7545 49.0393 -50.0000
v 19.1342 46.1940 -50.0000
v 19.1342 46.1940 50.0000
v 9.7545 49.0393 50.0000
v 19.1342 46.1940 -50.0000
v 27.7785 41.5735 -50.0000
v 27.7785 41.5735 50.0000
v 19.1342 46.1940 50.0000
v 27.7785 41.5735 -50.0000
v 35.3553 35.3553 -50.0000
v 35.3553 35.3553 50.0000
v 27.7785 41.5735 50.0000
v 35.3553 35.3553 -50.0000
v 41.5735 27.7785 -50.0000
v 41.5735 27.7785 50.0000
v 35.3553 35.3553 50.0000
v 41.5735 27.7785 -50.0000
v 46.1940 19.1342 -50.0000
v 46.1940 19.1342 50.0000
v 41.5735 27.7785 50.0000
v 46.1940 19.1342 -50.0000
v 49.0393 9.7545 -50.0000
v 49.0393 9.7545 50.0000
v 46.1940 19.1342 50.0000
v 49.0393 9.7545 -50.0000
v 50.0000 0.0000 -50.0000
v 50.0000 0.0000 50.0000
v 49.0393 9.7545 50.0000
v 0.0000 0.0000 50.0000
v 50.0000 -0.0000 50.0000
v 49.0393 -9.7545 50.0000
v 49.0393 -9.7545 50.0000
v 46.1940 -19.1342 50.0000
v 46.1940 -19.1342 50.0000
v 41.5735 -27.7785 50.0000
v 41.5735 -27.7785 50.0000
v 35.3553 -35.3553 50.0000
v 35.3553 -35.3553 50.0000
v 27.7785 -41.5735 50.0000
v 27.7785 -41.5735 50.0000
v 19.1342 -46.1940 50.0000
v 19.1342 -46.1940 50.0000
v 9.7545 -49.0393 50.0000
v 9.7545 -49.0393 50.0000
v 0.0000 -50.0000 50.0000
v 0.0000 -50.0000 50.0000
v -9.7545 -49.0393 50.0000
v -9.7545 -49.0393 50.0000
v -19.1342 -46.1940 50.0000
v -19.1342 -46.1940 50.0000
v -27.7785 -41.5735 50.0000
v -27.7785 -41.5735 50.0000
v -35.3553 -35.3553 50.0000
v -35.3553 -35.3553 50.0000
v -41.5735 -27.7785 50.0000
v -41.5735 -27.7785 50.0000
v -46.1940 -19.1342 50.0000
v -46.1940 -19.1342 50.0000
v -49.0393 -9.7545 50.0000
v -49.0393 -9.7545 50.0000
v -50.0000 -0.0000 50.0000
v -50.0000 -0.0000 50.0000
v -49.0393 9.7545 50.0000
v -49.0393 9.7545 50.0000
v -46.1940 19.1342 50.0000
v -46.1940 19.1342 50.0000
v -41.5735 27.7785 50.0000
v -41.5735 27.7785 50.0000
v -35.3553 35.3553 50.0000
v -35.3553 35.3553 50.0000
v -27.7785 41.5735 50.0000
v -27.7785 41.5735 50.0000
v -19.1342 46.1940 50.0000
v -19.1342 46.1940 50.0000
v -9.7545 49.0393 50.0000
v -9.7545 49.0393 50.0000
v -0.0000 50.0000 50.0000
v -0.0000 50.0000 50.0000
v 9.7545 49.0393 50.0000
v 9.7545 49.0393 50.0000
v 19.1342 46.1940 50.0000
v 19.1342 46.1940 50.0000
v 27.7785 41.5735 50.0000
v 27.7785 41.5735 50.0000
v 35.3553 35.3553 50.0000
v 35.3553 35.3553 50.0000
v 41.5735 27.7785 50.0000
v 41.5735 27.7785 50.0000
v 46.1940 19.1342 50.0000
v 46.1940 19.1342 50.0000
v 49.0393 9.7545 50.0000
v 49.0393 9.7545 50.0000
v 50.0000 0.0000 50.0000
v 0.0000 0.0000 -50.0000
v 50.0000 -0.0000 -50.0000
v 49.0393 -9.7545 -50.0000
v 49.0393 -9.7545 -50.0000
v 46.1940 -19.1342 -50.0000
v 46.1940 -19.1342 -50.0000
v 41.5735 -27.7785 -50.0000
v 41.5735 -27.7785 -50.0000
v 35.3553 -35.3553 -50.0000
v 35.3553 -35.3553 -50.0000
v 27.7785 -41.5735 -50.0000
v 27.7785 -41.5735 -50.0000
v 19.1342 -46.1940 -50.0000
v 19.1342 -46.1940 -50.0000
v 9.7545 -49.0393 -50.0000
v 9.7545 -49.0393 -50.0000
v 0.0000 -50.0000 -50.0000
v 0.0000 -50.0000 -50.0000
v -9.7545 -49.0393 -50.0000
v -9.7545 -49.0393 -50.0000
v -19.1342 -46.1940 -50.0000
v -19.1342 -46.1940 -50.0000
v -27.7785 -41.5735 -50.0000
v -27.7785 -41.5735 -50.0000
v -35.3553 -35.3553 -50.0000
v -35.3553 -35.3553 -50.0000
v -41.5735 -27.7785 -50.0000
v -41.5735 -27.7785 -50.0000
v -46.1940 -19.1342 -50.0000
v -46.1940 -19.1342 -50.0000
v -49.0393 -9.7545 -50.0000
v -49.0393 -9.7545 -50.0000
v -50.0000 -0.0000 -50.0000
v -50.0000 -0.0000 -50.0000
v -49.0393 9.7545 -50.0000
v -49.0393 9.7545 -50.0000
v -46.1940 19.1342 -50.0000
v -46.1940 19.1342 -50.0000
v -41.5735 27.7785 -50.0000
v -41.5735 27.7785 -50.0000
v -35.3553 35.3553 -50.0000
v -35.3553 35.3553 -50.0000
v -27.7785 41.5735 -50.0000
v -27.7785 41.5735 -50.0000
v -19.1342 46.1940 -50.0000
v -19.1342 46.1940 -50.0000
v -9.7545 49.0393 -50.0000
v -9.7545 49.0393 -50.0000
v -0.0000 50.0000 -50.0000
v -0.0000 50.0000 -50.0000
v 9.7545 49.0393 -50.0000
v 9.7545 49.0393 -50.0000
v 19.1342 46.1940 -50.0000
v 19.1342 46.1940 -50.0000
v 27.7785 41.5735 -50.0000
v 27.7785 41.5735 -50.0000
v 35.3553 35.3553 -50.0000
v 35.3553 35.3553 -50.0000
v 41.5735 27.7785 -50.0000
v 41.5735 27.7785 -50.0000
v 46.1940 19.1342 -50.0000
v 46.1940 19.1342 -50.0000
v 49.0393 9.7545 -50.0000
v 49.0393 9.7545 -50.0000
v 50.0000 0.0000 -50.0000
vt 0.00000 0.00000
vt 0.03125 0.00000
vt 0.03125 1.00000
vt 0.00000 1.00000
vt 0.03125 0.00000
vt 0.06250 0.00000
vt 0.06250 1.00000
vt 0.03125 1.00000
vt 0.06250 0.00000
vt 0.09375 0.00000
vt 0.09375 1.00000
vt 0.06250 1.00000
vt 0.09375 0.00000
vt 0.12500 0.00000
vt 0.12500 1.00000
vt 0.09375 1.00000
vt 0.12500 0.00000
vt 0.15625 0.00000
vt 0.15625 1.00000
vt 0.12500 1.00000
vt 0.15625 0.00000
vt 0.18750 0.00000
vt 0.18750 1.00000
vt 0.15625 1.00000
vt 0.18750 0.00000
vt 0.21875 0.00000
vt 0.21875 1.00000
vt 0.18750 1.00000
vt 0.21875 0.00000
vt 0.25000 0.00000
vt 0.25000 1.00000
vt 0.21875 1.00000
vt 0.25000 0.00000
vt 0.28125 0.00000
vt 0.28125 1.00000
vt 0.25000 1.00000
vt 0.28125 0.00000
vt 0.31250 0.00000
vt 0.31250 1.00000
vt 0.28125 1.00000
vt 0.31250 0.00000
vt 0.34375 0.00000
vt 0.34375 1.00000
vt 0.31250 1.00000
vt 0.34375 0.00000
vt 0.37500 0.00000
vt 0.37500 1.00000
vt 0.34375 1.00000
vt 0.37500 0.00000
vt 0.40625 0.00000
vt 0.40625 1.00000
vt 0.37500 1.00000
vt 0.40625 0.00000
vt 0.43750 0.00000
vt 0.43750 1.00000
vt 0.40625 1.00000
vt 0.43750 0.00000
vt 0.46875 0.00000
vt 0.46875 1.00000
vt 0.43750 1.00000
vt 0.46875 0.00000
vt 0.50000 0.00000
vt 0.50000 1.00000
vt 0.46875 1.00000
vt 0.50000 0.00000
vt 0.53125 0.00000
vt 0.53125 1.00000
vt 0.50000 1.00000
vt 0.53125 0.00000
vt 0.56250 0.00000
vt 0.56250 1.00000
vt 0.53125 1.00000
vt 0.56250 0.00000
vt 0.59375 0.00000
vt 0.59375 1.00000
vt 0.56250 1.00000
vt 0.59375 0.00000
vt 0.62500 0.00000
vt 0.62500 1.00000
vt 0.59375 1.00000
vt 0.62500 0.00000
vt 0.65625 0.00000
vt 0.65625 1.00000
vt 0.62500 1.00000
vt 0.65625 0.00000
vt 0.68750 0.00000
vt 0.68750 1.00000
vt 0.65625 1.00000
vt 0.68750 0.00000
vt 0.71875 0.00000
vt 0.71875 1.00000
vt 0.68750 1.00000
vt 0.71875 0.00000
vt 0.75000 0.00000
vt 0.75000 1.00000
vt 0.71875 1.00000
vt 0.75000 0.00000
vt 0.78125 0.00000
vt 0.78125 1.00000
vt 0.75000 1.00000
vt 0.78125 0.00000
vt 0.81250 0.00000
vt 0.81250 1.00000
vt 0.78125 1.00000
vt 0.81250 0.00000
vt 0.84375 0.00000
vt 0.84375 1.00000
vt 0.81250 1.00000
vt 0.84375 0.00000
vt 0.87500 0.00000
vt 0.87500 1.00000
vt 0.84375 1.00000
vt 0.87500 0.00000
vt 0.90625 0.00000
vt 0.90625 1.00000
vt 0.87500 1.00000
vt 0.90625 0.00000
vt 0.93750 0.00000
vt 0.93750 1.00000
vt 0.90625 1.00000
vt 0.93750 0.00000
vt 0.96875 0.00000
vt 0.96875 1.00000
vt 0.93750 1.00000
vt 0.96875 0.00000
vt 1.00000 0.00000
vt 1.00000 1.00000
vt 0.96875 1.00000
vt 0.50000 0.50000
vt 1.00000 0.50000
vt 0.99039 0.40245
vt 0.99039 0.40245
vt 0.96194 0.30866
vt 0.96194 0.30866
vt 0.91573 0.22221
vt 0.91573 0.22221
vt 0.85355 0.14645
vt 0.85355 0.14645
vt 0.77779 0.08427
vt 0.77779 0.08427
vt 0.69134 0.03806
vt 0.69134 0.03806
vt 0.59755 0.00961
vt 0.59755 0.00961
vt 0.50000 0.00000
vt 0.50000 0.00000
vt 0.40245 0.00961
vt 0.40245 0.00961
vt 0.30866 0.03806
vt 0.30866 0.03806
vt 0.22221 0.08427
vt 0.22221 0.08427
vt 0.14645 0.14645
vt 0.14645 0.14645
vt 0.08427 0.22221
vt 0.08427 0.22221
vt 0.03806 0.30866
vt 0.03806 0.30866
vt 0.00961 0.40245
vt 0.00961 0.40245
vt 0.00000 0.50000
vt 0.00000 0.50000
vt 0.00961 0.59755
vt 0.00961 0.59755
vt 0.03806 0.69134
vt 0.03806 0.69134
vt 0.08427 0.77779
vt 0.08427 0.77779
vt 0.14645 0.85355
vt 0.14645 0.85355
vt 0.22221 0.91573
vt 0.22221 0.91573
vt 0.30866 0.96194
vt 0.30866 0.96194
vt 0.40245 0.99039
vt 0.40245 0.99039
vt 0.50000 1.00000
vt 0.50000 1.00000
vt 0.59755 0.99039
vt 0.59755 0.99039
vt 0.69134 0.96194
vt 0.69134 0.96194
vt 0.77779 0.91573
vt 0.77779 0.91573
vt 0.85355 0.85355
vt 0.85355 0.85355
vt 0.91573 0.77779
vt 0.91573 0.77779
vt 0.96194 0.69134
vt 0.96194 0.69134
vt 0.99039 0.59755
vt 0.99039 0.59755
vt 1.00000 0.50000
vt 0.50000 0.50000
vt 1.00000 0.50000
vt 0.99039 0.40245
vt 0.99039 0.40245
vt 0.96194 0.30866
vt 0.96194 0.30866
vt 0.91573 0.22221
vt 0.91573 0.22221
vt 0.85355 0.14645
vt 0.85355 0.14645
vt 0.77779 0.08427
vt 0.77779 0.08427
vt 0.69134 0.03806
vt 0.69134 0.03806
vt 0.59755 0.00961
vt 0.59755 0.00961
vt 0.50000 0.00000
vt 0.50000 0.00000
vt 0.40245 0.00961
vt 0.40245 0.00961
vt 0.30866 0.03806
vt 0.30866 0.03806
vt 0.22221 0.08427
vt 0.22221 0.08427
vt 0.14645 0.14645
vt 0.14645 0.14645
vt 0.08427 0.22221
vt 0.08427 0.22221
vt 0.03806 0.30866
vt 0.03806 0.30866
vt 0.00961 0.40245
vt 0.00961 0.40245
vt 0.00000 0.50000
vt 0.00000 0.50000
vt 0.00961 0.59755
vt 0.00961 0.59755
vt 0.03806 0.69134
vt 0.03806 0.69134
vt 0.08427 0.77779
vt 0.08427 0.77779
vt 0.14645 0.85355
vt 0.14645 0.85355
vt 0.22221 0.91573
vt 0.22221 0.91573
vt 0.30866 0.96194
vt 0.30866 0.96194
vt 0.40245 0.99039
vt 0.40245 0.99039
vt 0.50000 1.00000
vt 0.50000 1.00000
vt 0.59755 0.99039
vt 0.59755 0.99039
vt 0.69134 0.96194
vt 0.69134 0.96194
vt 0.77779 0.91573
vt 0.77779 0.91573
vt 0.85355 0.85355
vt 0.85355 0.85355
vt 0.91573 0.77779
vt 0.91573 0.77779
vt 0.96194 0.69134
vt 0.96194 0.69134
vt 0.99039 0.59755
vt 0.99039 0.59755
vt 1.00000 0.50000
vn 1.00000 -0.00000 0.00000
vn 0.98079 -0.19509 0.00000
vn 0.98079 -0.19509 0.00000
vn 1.00000 -0.00000 0.00000
vn 0.98079 -0.19509 0.00000
vn 0.92388 -0.38268 0.00000
vn 0.92388 -0.38268 0.00000
vn 0.98079 -0.19509 0.00000
vn 0.92388 -0.38268 0.00000
vn 0.83147 -0.55557 0.00000
vn 0.83147 -0.55557 0.00000
vn 0.92388 -0.38268 0.00000
vn 0.83147 -0.55557 0.00000
vn 0.70711 -0.70711 0.00000
vn 0.70711 -0.70711 0.00000
vn 0.83147 -0.55557 0.00000
vn 0.70711 -0.70711 0.00000
vn 0.55557 -0.83147 0.00000
vn 0.55557 -0.83147 0.00000
vn 0.70711 -0.70711 0.00000
vn 0.55557 -0.83147 0.00000
vn 0.38268 -0.92388 0.00000
vn 0.38268 -0.92388 0.00000
vn 0.55557 -0.83147 0.00000
vn 0.38268 -0.92388 0.00000
vn 0.19509 -0.98079 0.00000
vn 0.19509 -0.98079 0.00000
vn 0.38268 -0.92388 0.00000
vn 0.19509 -0.98079 0.00000
vn 0.00000 -1.00000 0.00000
vn 0.00000 -1.00000 0.00000
vn 0.19509 -0.98079 0.00000
vn 0.00000 -1.00000 0.00000
vn -0.19509 -0.98079 0.00000
vn -0.19509 -0.98079 0.00000
vn 0.00000 -1.00000 0.00000
vn -0.19509 -0.98079 0.00000
vn -0.38268 -0.92388 0.00000
vn -0.38268 -0.92388 0.00000
vn -0.19509 -0.98079 0.00000
vn -0.38268 -0.92388 0.00000
vn -0.55557 -0.83147 0.00000
vn -0.55557 -0.83147 0.00000
vn -0.38268 -0.92388 0.00000
vn -0.55557 -0.83147 0.00000
vn -0.70711 -0.70711 0.00000
vn -0.70711 -0.70711 0.00000
vn -0.55557 -0.83147 0.00000
vn -0.70711 -0.70711 0.00000
vn -0.83147 -0.55557 0.00000
vn -0.83147 -0.55557 0.00000
vn -0.70711 -0.70711 0.00000
vn -0.83147 -0.55557 0.00000
vn -0.92388 -0.38268 0.00000
vn -0.92388 -0.38268 0.00000
vn -0.83147 -0.55557 0.00000
vn -0.92388 -0.38268 0.00000
vn -0.98079 -0.19509 0.00000
vn -0.98079 -0.19509 0.00000
vn -0.92388 -0.38268 0.00000
vn -0.98079 -0.19509 0.00000
vn -1.00000 -0.00000 0.00000
vn -1.00000 -0.00000 0.00000
vn -0.98079 -0.19509 0.00000
vn -1.00000 -0.00000 0.00000
vn -0.98079 0.19509 0.00000
vn -0.98079 0.19509 0.00000
vn -1.00000 -0.00000 0.00000
vn -0.98079 0.19509 0.00000
vn -0.92388 0.38268 0.00000
vn -0.92388 0.38268 0.00000
vn -0.98079 0.19509 0.00000
vn -0.92388 0.38268 0.00000
vn -0.83147 0.55557 0.00000
vn -0.83147 0.55557 0.00000
vn -0.92388 0.38268 0.00000
vn -0.83147 0.55557 0.00000
vn -0.70711 0.70711 0.00000
vn -0.70711 0.70711 0.00000
vn -0.83147 0.55557 0.00000
vn -0.70711 0.70711 0.00000
vn -0.55557 0.83147 0.00000
vn -0.55557 0.83147 0.00000
vn -0.70711 0.70711 0.00000
vn -0.55557 0.83147 0.00000
vn -0.38268 0.92388 0.00000
vn -0.38268 0.92388 0.00000
vn -0.55557 0.83147 0.00000
vn -0.38268 0.92388 0.00000
vn -0.19509 0.98079 0.00000
vn -0.19509 0.98079 0.00000
vn -0.38268 0.92388 0.00000
vn -0.19509 0.98079 0.00000
vn -0.00000 1.00000 0.00000
vn -0.00000 1.00000 0.00000
vn -0.19509 0.98079 0.00000
vn -0.00000 1.00000 0.00000
vn 0.19509 0.98079 0.00000
vn 0.19509 0.98079 0.00000
vn -0.00000 1.00000 0.00000
vn 0.19509 0.98079 0.00000
vn 0.38268 0.92388 0.00000
vn 0.38268 0.92388 0.00000
vn 0.19509 0.98079 0.00000
vn 0.38268 0.92388 0.00000
vn 0.55557 0.83147 0.00000
vn 0.55557 0.83147 0.00000
vn 0.38268 0.92388 0.00000
vn 0.55557 0.83147 0.00000
vn 0.70711 0.70711 0.00000
vn 0.70711 0.70711 0.00000
vn 0.55557 0.83147 0.00000
vn 0.70711 0.70711 0.00000
vn 0.83147 0.55557 0.00000
vn 0.83147 0.55557 0.00000
vn 0.70711 0.70711 0.00000
vn 0.83147 0.55557 0.00000
vn 0.92388 0.38268 0.00000
vn 0.92388 0.38268 0.00000
vn 0.83147 0.55557 0.00000
vn 0.92388 0.38268 0.00000
vn 0.98079 0.19509 0.00000
vn 0.98079 0.19509 0.00000
vn 0.92388 0.38268 0.00000
vn 0.98079 0.19509 0.00000
vn 1.00000 0.00000 0.00000
vn 1.00000 0.00000 0.00000
vn 0.98079 0.19509 0.00000
vn 0.00000 0.00000 1.00000
vn 0.00000 0.00000 1.00000
vn 0.00000 0.00000 1.00000
vn 0.00000 0.00000 1.00000
vn 0.00000 0.00000 1.00000
vn 0.00000 0.00000 1.00000
vn 0.00000 0.00000 1.00000
vn 0.00000 0.00000 1.00000
vn 0.00000 0.00000 1.00000
vn 0.00000 0.00000 1.00000
vn 0.00000 0.00000 1.00000
vn 0.00000 0.00000 1.00000
vn 0.00000 0.00000 1.00000
vn 0.00000 0.00000 1.00000
vn 0.00000 0.00000 1.00000
vn 0.00000 0.00000 1.00000
vn 0.00000 0.00000 1.00000
vn 0.00000 0.00000 1.00000
vn 0.00000 0.00000 1.00000
vn 0.00000 0.00000 1.00000
vn 0.00000 0.00000 1.00000
vn 0.00000 0.00000 1.00000
vn 0.00000 0.00000 1.00000
vn 0.00000 0.00000 1.00000
vn 0.00000 0.00000 1.00000
vn 0.00000 0.00000 1.00000
vn 0.00000 0.00000 1.00000
vn 0.00000 0.00000 1.00000
vn 0.00000 0.00000 1.00000
vn 0.00000 0.00000 1.00000
vn 0.00000 0.00000 1.00000
vn 0.00000 0.00000 1.00000
vn 0.00000 0.00000 1.00000
vn 0.00000 0.00000 1.00000
vn 0.00000 0.00000 1.00000
vn 0.00000 0.00000 1.00000
vn 0.00000 0.00000 1.00000
vn 0.00000 0.00000 1.00000
vn 0.00000 0.00000 1.00000
vn 0.00000 0.00000 1.00000
vn 0.00000 0.00000 1.00000
vn 0.00000 0.00000 1.00000
vn 0.00000 0.00000 1.00000
vn 0.00000 0.00000 1.00000
vn 0.00000 0.00000 1.00000
vn 0.00000 0.00000 1.00000
vn 0.00000 0.00000 1.00000
vn 0.00000 0.00000 1.00000
vn 0.00000 0.00000 1.00000
vn 0.00000 0.00000 1.00000
vn 0.00000 0.00000 1.00000
vn 0.00000 0.00000 1.00000
vn 0.00000 0.00000 1.00000
vn 0.00000 0.00000 1.00000
vn 0.00000 0.00000 1.00000
vn 0.00000 0.00000 1.00000
vn 0.00000 0.00000 1.00000
vn 0.00000 0.00000 1.00000
vn 0.00000 0.00000 1.00000
vn 0.00000 0.00000 1.00000
vn 0.00000 0.00000 1.00000
vn 0.00000 0.00000 1.00000
vn 0.00000 0.00000 1.00000
vn 0.00000 0.00000 1.00000
vn 0.00000 0.00000 1.00000
vn 0.00000 0.00000 -1.00000
vn 0.00000 0.00000 -1.00000
vn 0.00000 0.00000 -1.00000
vn 0.00000 0.00000 -1.00000
vn 0.00000 0.00000 -1.00000
vn 0.00000 0.00000 -1.00000
vn 0.00000 0.00000 -1.00000
vn 0.00000 0.00000 -1.00000
vn 0.00000 0.00000 -1.00000
vn 0.00000 0.00000 -1.00000
vn 0.00000 0.00000 -1.00000
vn 0.00000 0.00000 -1.00000
vn 0.00000 0.00000 -1.00000
vn 0.00000 0.00000 -1.00000
vn 0.00000 0.00000 -1.00000
vn 0.00000 0.00000 -1.00000
vn 0.00000 0.00000 -1.00000
vn 0.00000 0.00000 -1.00000
vn 0.00000 0.00000 -1.00000
vn 0.00000 0.00000 -1.00000
vn 0.00000 0.00000 -1.00000
vn 0.00000 0.00000 -1.00000
vn 0.00000 0.00000 -1.00000
vn 0.00000 0.00000 -1.00000
vn 0.00000 0.00000 -1.00000
vn 0.00000 0.00000 -1.00000
vn 0.00000 0.00000 -1.00000
vn 0.00000 0.00000 -1.00000
vn 0.00000 0.00000 -1.00000
vn 0.00000 0.00000 -1.00000
vn 0.00000 0.00000 -1.00000
vn 0.00000 0.00000 -1.00000
vn 0.00000 0.00000 -1.00000
vn 0.00000 0.00000 -1.00000
vn 0.00000 0.00000 -1.00000
vn 0.00000 0.00000 -1.00000
vn 0.00000 0.00000 -1.00000
vn 0.00000 0.00000 -1.00000
vn 0.00000 0.00000 -1.00000
vn 0.00000 0.00000 -1.00000
vn 0.00000 0.00000 -1.00000
vn 0.00000 0.00000 -1.00000
vn 0.00000 0.00000 -1.00000
vn 0.00000 0.00000 -1.00000
vn 0.00000 0.00000 -1.00000
vn 0.00000 0.00000 -1.00000
vn 0.00000 0.00000 -1.00000
vn 0.00000 0.00000 -1.00000
vn 0.00000 0.00000 -1.00000
vn 0.00000 0.00000 -1.00000
vn 0.00000 0.00000 -1.00000
vn 0.00000 0.00000 -1.00000
vn 0.00000 0.00000 -1.00000
vn 0.00000 0.00000 -1.00000
vn 0.00000 0.00000 -1.00000
vn 0.00000 0.00000 -1.00000
vn 0.00000 0.00000 -1.00000
vn 0.00000 0.00000 -1.00000
vn 0.00000 0.00000 -1.00000
vn 0.00000 0.00000 -1.00000
vn 0.00000 0.00000 -1.00000
vn 0.00000 0.00000 -1.00000
vn 0.00000 0.00000 -1.00000
vn 0.00000 0.00000 -1.00000
vn 0.00000 0.00000 -1.00000
usemtl Main
s off
f 1/1/1 4/4/4 3/3/3
f 1/1/1 3/3/3 2/2/2
f 5/5/5 8/8/8 7/7/7
f 5/5/5 7/7/7 6/6/6
f 9/9/9 12/12/12 11/11/11
f 9/9/9 11/11/11 10/10/10
f 13/13/13 16/16/16 15/15/15
f 13/13/13 15/15/15 14/14/14
f 17/17/17 20/20/20 19/19/19
f 17/17/17 19/19/19 18/18/18
f 21/21/21 24/24/24 23/23/23
f 21/21/21 23/23/23 22/22/22
f 25/25/25 28/28/28 27/27/27
f 25/25/25 27/27/27 26/26/26
f 29/29/29 32/32/32 31/31/31
f 29/29/29 31/31/31 30/30/30
f 33/33/33 36/36/36 35/35/35
f 33/33/33 35/35/35 34/34/34
f 37/37/37 40/40/40 39/39/39
f 37/37/37 39/39/39 38/38/38
f 41/41/41 44/44/44 43/43/43
f 41/41/41 43/43/43 42/42/42
f 45/45/45 48/48/48 47/47/47
f 45/45/45 47/47/47 46/46/46
f 49/49/49 52/52/52 51/51/51
f 49/49/49 51/51/51 50/50/50
f 53/53/53 56/56/56 55/55/55
f 53/53/53 55/55/55 54/54/54
f 57/57/57 60/60/60 59/59/59
f 57/57/57 59/59/59 58/58/58
f 61/61/61 64/64/64 63/63/63
f 61/61/61 63/63/63 62/62/62
f 65/65/65 68/68/68 67/67/67
f 65/65/65 67/67/67 66/66/66
f 69/69/69 72/72/72 71/71/71
f 69/69/69 71/71/71 70/70/70
f 73/73/73 76/76/76 75/75/75
f 73/73/73 75/75/75 74/74/74
f 77/77/77 80/80/80 79/79/79
f 77/77/77 79/79/79 78/78/78
f 81/81/81 84/84/84 83/83/83
f 81/81/81 83/83/83 82/82/82
f 85/85/85 88/88/88 87/87/87
f 85/85/85 87/87/87 86/86/86
f 89/89/89 92/92/92 91/91/91
f 89/89/89 91/91/91 90/90/90
f 93/93/93 96/96/96 95/95/95
f 93/93/93 95/95/95 94/94/94
f 97/97/97 100/100/100 99/99/99
f 97/97/97 99/99/99 98/98/98
f 101/101/101 104/104/104 103/103/103
f 101/101/101 103/103/103 102/102/102
f 105/105/105 108/108/108 107/107/107
f 105/105/105 107/107/107 106/106/106
f 109/109/109 112/112/112 111/111/111
f 109/109/109 111/111/111 110/110/110
f 113/113/113 116/116/116 115/115/115
f 113/113/113 115/115/115 114/114/114
f 117/117/117 120/120/120 119/119/119
f 117/117/117 119/119/119 118/118/118
f 121/121/121 124/124/124 123/123/123
f 121/121/121 123/123/123 122/122/122
f 125/125/125 128/128/128 127/127/127
f 125/125/125 127/127/127 126/126/126
f 129/129/129 131/131/131 130/130/130
f 129/129/129 133/133/133 132/132/132
f 129/129/129 135/135/135 134/134/134
f 129/129/129 137/137/137 136/136/136
f 129/129/129 139/139/139 138/138/138
f 129/129/129 141/141/141 140/140/140
f 129/129/129 143/143/143 142/142/142
f 129/129/129 145/145/145 144/144/144
f 129/129/129 147/147/147 146/146/146
f 129/129/129 149/149/149 148/148/148
f 129/129/129 151/151/151 150/150/150
f 129/129/129 153/153/153 152/152/152
f 129/129/129 155/155/155 154/154/154
f 129/129/129 157/157/157 156/156/156
f 129/129/129 159/159/159 158/158/158
f 129/129/129 161/161/161 160/160/160
f 129/129/129 163/163/163 162/162/162
f 129/129/129 165/165/165 164/164/164
f 129/129/129 167/167/167 166/166/166
f 129/129/129 169/169/169 168/168/168
f 129/129/129 171/171/171 170/170/170
f 129/129/129 173/173/173 172/172/172
f 129/129/129 175/175/175 174/174/174
f 129/129/129 177/177/177 176/176/176
f 129/129/129 179/179/179 178/178/178
f 129/129/129 181/181/181 180/180/180
f 129/129/129 183/183/183 182/182/182
f 129/129/129 185/185/185 184/184/184
f 129/129/129 187/187/187 186/186/186
f 129/129/129 189/189/189 188/188/188
f 129/129/129 191/191/191 190/190/190
f 129/129/129 193/193/193 192/192/192
f 194/194/194 195/195/195 196/196/196
f 194/194/194 197/197/197 198/198/198
f 194/194/194 199/199/199 200/200/200
f 194/194/194 201/201/201 202/202/202
f 194/194/194 203/203/203 204/204/204
f 194/194/194 205/205/205 206/206/206
f 194/194/194 207/207/207 208/208/208
f 194/194/194 209/209/209 210/210/210
f 194/194/194 211/211/211 212/212/212
f 194/194/194 213/213/213 214/214/214
f 194/194/194 215/215/215 216/216/216
f 194/194/194 217/217/217 218/218/218
f 194/194/194 219/219/219 220/220/220
f 194/194/194 221/221/221 222/222/222
f 194/194/194 223/223/223 224/224/224
f 194/194/194 225/225/225 226/226/226
f 194/194/194 227/227/227 228/228/228
f 194/194/194 229/229/229 230/230/230
f 194/194/194 231/231/231 232/232/232
f 194/194/194 233/233/233 234/234/234
f 194/194/194 235/235/235 236/236/236
f 194/194/194 237/237/237 238/238/238
f 194/194/194 239/239/239 240/240/240
f 194/194/194 241/241/241 242/242/242
f 194/194/194 243/243/243 244/244/244
f 194/194/194 245/245/245 246/246/246
f 194/194/194 247/247/247 248/248/248
f 194/194/194 249/249/249 250/250/250
f 194/194/194 251/251/251 252/252/252
f 194/194/194 253/253/253 254/254/254
f 194/194/194 255/255/255 256/256/256
f 194/194/194 257/257/257 258/258/258
