# uefn-cli meshgen
mtllib Main.mtl
o Main
v -50.0000 50.0000 0.0000
v -50.0000 -50.0000 0.0000
v 50.0000 -50.0000 0.0000
v 50.0000 50.0000 0.0000
v -50.0000 50.0000 0.0000
v -50.0000 50.0000 100.0000
v -50.0000 -50.0000 100.0000
v -50.0000 -50.0000 0.0000
v -50.0000 50.0000 100.0000
v 50.0000 50.0000 0.0000
v 50.0000 -50.0000 0.0000
v -50.0000 -50.0000 100.0000
v -50.0000 50.0000 0.0000
v 50.0000 50.0000 0.0000
v -50.0000 50.0000 100.0000
v -50.0000 -50.0000 0.0000
v -50.0000 -50.0000 100.0000
v 50.0000 -50.0000 0.0000
vt 0.00000 1.00000
vt 0.00000 0.00000
vt 1.00000 0.00000
vt 1.00000 1.00000
vt 0.00000 0.00000
vt 0.00000 1.00000
vt 1.00000 1.00000
vt 1.00000 0.00000
vt 0.00000 1.00000
vt 1.00000 0.00000
vt 1.00000 0.00000
vt 0.00000 1.00000
vt 0.00000 0.00000
vt 1.00000 0.00000
vt 0.00000 1.00000
vt 0.00000 0.00000
vt 0.00000 1.00000
vt 1.00000 0.00000
vn 0.00000 -0.00000 -1.00000
vn 0.00000 -0.00000 -1.00000
vn 0.00000 -0.00000 -1.00000
vn 0.00000 -0.00000 -1.00000
vn -1.00000 -0.00000 0.00000
vn -1.00000 -0.00000 0.00000
vn -1.00000 -0.00000 0.00000
vn -1.00000 -0.00000 0.00000
vn 0.70711 -0.00000 0.70711
vn 0.70711 -0.00000 0.70711
vn 0.70711 -0.00000 0.70711
vn 0.70711 -0.00000 0.70711
vn 0.00000 1.00000 0.00000
vn 0.00000 1.00000 0.00000
vn 0.00000 1.00000 0.00000
vn 0.00000 -1.00000 0.00000
vn 0.00000 -1.00000 0.00000
vn 0.00000 -1.00000 0.00000
usemtl Main
s off
f 1/1/1 3/3/3 2/2/2
f 1/1/1 4/4/4 3/3/3
f 5/5/5 7/7/7 6/6/6
f 5/5/5 8/8/8 7/7/7
f 9/9/9 11/11/11 10/10/10
f 9/9/9 12/12/12 11/11/11
f 13/13/13 15/15/15 14/14/14
f 16/16/16 18/18/18 17/17/17
